<?xml version="1.0" encoding="utf-8"?>
<!-- Generator: Adobe Illustrator 27.5.0, SVG Export Plug-In . SVG Version: 6.00 Build 0)  -->
<svg version="1.1" xmlns="http://www.w3.org/2000/svg" xmlns:xlink="http://www.w3.org/1999/xlink" x="0px" y="0px"
	 viewBox="0 0 500 500" style="enable-background:new 0 0 500 500;" xml:space="preserve">
<g id="Background_Simple">
	<g>
		<path style="fill:#C6FF00;" d="M452.707,289.848c1.765-11.46,1.998-23.577,0.817-35.881
			c-9.966-103.838-108.894-208.702-220.302-176.76c-38.495,11.037-67.02,36.831-84.009,72.515
			c-12.465,26.182-21.304,56.477-41.573,78.023c-33.253,35.348-73.387,89.976-22.933,132.821
			c50.453,42.845,112.373,9.641,165.121,4.285c44.341-4.503,89.146,7.54,133.346-0.221
			C425.159,357.257,446.985,327.002,452.707,289.848z"/>
		<path style="opacity:0.7;fill:#FFFFFF;" d="M452.707,289.848c1.765-11.46,1.998-23.577,0.817-35.881
			c-9.966-103.838-108.894-208.702-220.302-176.76c-38.495,11.037-67.02,36.831-84.009,72.515
			c-12.465,26.182-21.304,56.477-41.573,78.023c-33.253,35.348-73.387,89.976-22.933,132.821
			c50.453,42.845,112.373,9.641,165.121,4.285c44.341-4.503,89.146,7.54,133.346-0.221
			C425.159,357.257,446.985,327.002,452.707,289.848z"/>
	</g>
</g>
<g id="Window">
	<g>
		<g>
			<polygon style="fill:#FFFFFF;" points="228.827,128.588 144.178,128.588 145.035,117.337 229.683,117.337 			"/>
			<polygon style="fill:#FFFFFF;" points="228.827,144.34 144.178,144.34 145.035,133.089 229.683,133.089 			"/>
			<polygon style="fill:#FFFFFF;" points="228.827,160.092 144.178,160.092 145.035,148.84 229.683,148.84 			"/>
			<polygon style="fill:#FFFFFF;" points="228.827,175.843 144.178,175.843 145.035,164.592 229.683,164.592 			"/>
			<polygon style="fill:#FFFFFF;" points="228.827,191.595 144.178,191.595 145.035,180.344 229.683,180.344 			"/>
			<polygon style="fill:#FFFFFF;" points="228.827,207.346 144.178,207.346 145.035,196.095 229.683,196.095 			"/>
			<polygon style="fill:#FFFFFF;" points="228.827,223.098 144.178,223.098 145.035,211.847 229.683,211.847 			"/>
			<polygon style="fill:#FFFFFF;" points="228.827,238.85 144.178,238.85 145.035,227.598 229.683,227.598 			"/>
			<polygon style="fill:#FFFFFF;" points="228.827,254.601 144.178,254.601 145.035,243.35 229.683,243.35 			"/>
			<polygon style="fill:#FFFFFF;" points="228.827,270.353 144.178,270.353 145.035,259.102 229.683,259.102 			"/>
			<polygon style="fill:#FFFFFF;" points="228.827,286.104 144.178,286.104 145.035,274.853 229.683,274.853 			"/>
		</g>
		<g>
			<polygon style="fill:#FFFFFF;" points="318.33,128.588 233.681,128.588 234.538,117.337 319.186,117.337 			"/>
			<polygon style="fill:#FFFFFF;" points="318.33,144.34 233.681,144.34 234.538,133.089 319.186,133.089 			"/>
			<polygon style="fill:#FFFFFF;" points="318.33,160.092 233.681,160.092 234.538,148.84 319.186,148.84 			"/>
			<polygon style="fill:#FFFFFF;" points="318.33,175.843 233.681,175.843 234.538,164.592 319.186,164.592 			"/>
			<polygon style="fill:#FFFFFF;" points="318.33,191.595 233.681,191.595 234.538,180.344 319.186,180.344 			"/>
			<polygon style="fill:#FFFFFF;" points="318.33,207.346 233.681,207.346 234.538,196.095 319.186,196.095 			"/>
			<polygon style="fill:#FFFFFF;" points="318.33,223.098 233.681,223.098 234.538,211.847 319.186,211.847 			"/>
			<polygon style="fill:#FFFFFF;" points="318.33,238.85 233.681,238.85 234.538,227.598 319.186,227.598 			"/>
			<polygon style="fill:#FFFFFF;" points="318.33,254.601 233.681,254.601 234.538,243.35 319.186,243.35 			"/>
			<polygon style="fill:#FFFFFF;" points="318.33,270.353 233.681,270.353 234.538,259.102 319.186,259.102 			"/>
			<polygon style="fill:#FFFFFF;" points="318.33,286.104 233.681,286.104 234.538,274.853 319.186,274.853 			"/>
		</g>
	</g>
</g>
<g id="Plants">
	<g>
		<g>
			<path style="fill:#C6FF00;" d="M96.905,302.735c0.059,0.011-0.166-4.671-0.21-4.961c-0.509-3.356-3.237-9.29-6.578-9.444
				c-2.407-0.111-4.354,2.367-4.45,5.058c-0.098,2.75,1.719,5.185,3.457,6.624C91.165,301.702,96.901,302.734,96.905,302.735z"/>
			<path style="fill:#C6FF00;" d="M107.25,271.82c-3.307,1.165-5.714,7.88-6.048,11.364c-0.028,0.301-0.015,5.015,0.044,4.986
				c0,0,0.055-0.027,0.068-0.034c-0.387,1.057-0.791,2.195-1.212,3.446c-0.762,2.315-1.606,4.937-2.363,7.842
				c-0.763,2.902-1.523,6.071-2.069,9.463c-0.551,3.399-0.983,6.989-1.019,10.706c-0.001,0.042,0.004,0.085,0.004,0.127
				c-0.283-1.056-1.163-3.968-1.253-4.18c-1.275-2.99-5.343-7.714-8.692-6.834c-2.412,0.635-3.775,3.555-3.252,6.108
				c0.534,2.607,2.895,4.333,4.949,5.147c2.316,0.919,7.821,0.231,8.259,0.174c-0.005,3.537,0.239,7.137,0.662,10.744
				c0.24,2.063,0.538,4.125,0.86,6.186c-0.271-0.901-0.519-1.703-0.565-1.81c-1.275-2.99-5.343-7.714-8.692-6.833
				c-2.413,0.635-3.775,3.555-3.252,6.107c0.534,2.607,2.895,4.332,4.949,5.148c2.085,0.827,6.778,0.348,8.02,0.203
				c0.131,0.788,0.254,1.578,0.388,2.365c0.64,3.777,1.294,7.542,1.835,11.269c0.192,1.313,0.337,2.62,0.487,3.925
				c-0.242-0.799-0.451-1.47-0.492-1.567c-1.275-2.99-5.343-7.715-8.692-6.834c-2.412,0.635-3.775,3.555-3.252,6.108
				c0.534,2.606,2.895,4.332,4.949,5.147c1.989,0.789,6.321,0.392,7.797,0.227c0.118,1.347,0.238,2.695,0.299,4.013
				c0.024,0.903,0.101,1.764,0.081,2.678c-0.003,0.903-0.007,1.797-0.01,2.682c-0.061,1.711-0.114,3.476-0.21,5.148
				c-0.059,1.162-0.134,2.271-0.206,3.388c-0.176-1.311-0.57-3.865-0.625-4.071c-0.562-2.144-2.226-5.266-4.268-7.038
				c-0.082-0.317-0.187-0.622-0.321-0.911c-1.05-2.271-3.631-3.086-5.68-1.338c-2.845,2.425-3.081,9.448-2.317,12.71
				c0.045,0.192,0.743,2.193,1.202,3.444c-0.371-0.676-0.725-1.339-1.115-2.029c-0.763-1.371-1.562-2.71-2.416-4.154
				c-0.435-0.678-0.875-1.362-1.32-2.054c-0.427-0.698-0.961-1.363-1.442-2.055c-1.15-1.572-2.386-3.092-3.664-4.588
				c1.111-0.903,5.024-4.171,6.316-6.459c1.286-2.276,2.412-5.527,1.674-8.044c-0.723-2.465-3.125-3.738-5.35-2.345
				c-3.087,1.934-4.243,8.944-3.928,12.354c0.02,0.213,0.487,2.602,0.766,3.905c-0.775-0.891-1.544-1.786-2.356-2.655
				c-2.344-2.51-4.793-4.957-7.225-7.413c-0.746-0.751-1.479-1.512-2.217-2.269c0.398-0.317,5.111-4.094,6.559-6.655
				c1.287-2.276,2.412-5.527,1.674-8.045c-0.723-2.465-3.126-3.738-5.35-2.345c-3.087,1.935-4.242,8.944-3.929,12.354
				c0.024,0.257,0.701,3.693,0.91,4.552c-1.623-1.669-3.226-3.351-4.741-5.092c-2.094-2.398-4.02-4.897-5.717-7.499
				c0.186-0.147,5.118-4.065,6.6-6.688c1.287-2.276,2.413-5.527,1.674-8.045c-0.723-2.465-3.126-3.738-5.35-2.345
				c-3.087,1.935-4.242,8.944-3.928,12.354c0.02,0.224,0.534,2.844,0.804,4.08c-0.097,0.061-0.079,0.05-0.176,0.11
				c-1.787-2.816-3.186-5.841-4.367-8.763c-0.687-1.69-1.258-3.36-1.78-5.003c0.974-0.628,5.402-3.552,6.948-5.768
				c1.481-2.124,2.898-5.248,2.413-7.873c-0.475-2.571-2.715-4.157-5.033-3.04c-3.218,1.551-5.022,8.45-5.04,11.918
				c-0.001,0.189,0.174,2.085,0.318,3.462c-0.225-0.747-0.471-1.511-0.674-2.233c-0.769-2.707-1.323-5.259-1.798-7.526
				c-0.26-1.292-0.473-2.47-0.662-3.575c0.728-1.163,3.612-5.884,4.16-8.526c0.534-2.578,0.607-5.961-0.898-7.907
				c-1.474-1.905-4.204-2.038-5.924,0.142c-2.387,3.026-1.31,9.788,0.063,12.711c0.119,0.252,2.392,3.908,2.431,3.847
				c0,0,0.035-0.056,0.044-0.07c0.163,1.07,0.348,2.214,0.573,3.455c0.431,2.288,0.937,4.867,1.657,7.611
				c0.712,2.744,1.555,5.696,2.695,8.681c1.139,2.995,2.476,6.063,4.228,8.974c0.02,0.033,0.044,0.064,0.064,0.096
				c-0.758-0.639-2.939-2.338-3.121-2.445c-2.57-1.506-8.46-2.57-11.021,0.262c-1.845,2.04-1.658,5.183,0.033,6.832
				c1.727,1.684,4.657,1.511,6.878,0.827c2.505-0.771,7.079-4.835,7.441-5.16c1.692,2.753,3.637,5.394,5.744,7.926
				c1.203,1.449,2.458,2.861,3.733,4.256c-0.674-0.526-1.28-0.991-1.371-1.045c-2.57-1.506-8.461-2.569-11.021,0.262
				c-1.845,2.04-1.658,5.183,0.033,6.832c1.726,1.685,4.657,1.511,6.878,0.828c2.254-0.694,6.205-4.075,7.242-4.985
				c0.495,0.529,0.983,1.063,1.479,1.59c2.383,2.525,4.771,5.032,7.04,7.582c0.8,0.898,1.557,1.82,2.317,2.739
				c-0.599-0.467-1.107-0.854-1.191-0.903c-2.57-1.506-8.46-2.57-11.021,0.262c-1.845,2.04-1.658,5.183,0.033,6.832
				c1.726,1.684,4.657,1.51,6.878,0.827c2.151-0.662,5.819-3.748,7.055-4.823c0.751,0.971,1.505,1.942,2.191,2.927
				c0.454,0.687,0.936,1.306,1.356,2.029c0.43,0.704,0.856,1.401,1.278,2.091c0.766,1.369,1.565,2.776,2.282,4.137
				c0.505,0.941,0.971,1.851,1.442,2.766c-0.786-0.906-2.362-2.638-2.51-2.764c-2.301-1.965-7.892-4.07-10.757-1.677
				c-2.063,1.724-2.295,4.912-0.868,6.865c1.458,1.995,4.332,2.337,6.582,2.042c2.478-0.325,7.278-3.449,7.876-3.843
				c0.775,1.517,1.515,3.003,2.193,4.419c2.361,4.905,4.155,9.114,5.372,12.079c0.043,0.106,0.082,0.201,0.123,0.302l2.187-1.059
				c-0.082-0.191-0.163-0.378-0.252-0.582c-1.291-2.962-3.187-7.156-5.669-12.037c-0.781-1.545-1.644-3.174-2.544-4.836
				c0.328-0.348,2.187-2.34,3.74-4.43c2.213,1.186,7.094,1.465,7.725,1.495c-0.126,1.848-0.263,3.646-0.416,5.344
				c-0.518,5.884-1.142,10.784-1.619,14.206c-0.02,0.141-0.038,0.265-0.057,0.4l2.404-1.164c0.4-3.404,0.884-8.011,1.262-13.466
				c0.134-1.877,0.245-3.882,0.342-5.94c0.645-0.152,5.915-1.43,8.057-3.127c1.942-1.539,4.1-4.083,4.379-6.837
				c0.273-2.697-1.342-5.078-3.773-4.835c-3.375,0.337-6.927,6.442-7.897,9.838c-0.058,0.2-0.474,2.43-0.718,3.839
				c0.036-0.84,0.079-1.657,0.106-2.522c0.065-1.711,0.086-3.415,0.114-5.25c-0.013-0.883-0.026-1.775-0.04-2.676
				c0.003-0.896-0.092-1.831-0.135-2.755c-0.139-2.137-0.371-4.284-0.647-6.437c1.297-0.092,5.905-0.495,8.007-1.704
				c2.092-1.203,4.526-3.377,5.16-6.094c0.621-2.66-0.636-5.335-3.034-5.519c-3.327-0.256-7.587,5.248-8.979,8.488
				c-0.087,0.202-0.87,2.63-1.278,3.971c-0.175-1.292-0.343-2.582-0.558-3.877c-0.618-3.739-1.347-7.49-2.059-11.236
				c-0.219-1.148-0.424-2.295-0.634-3.443c0.461-0.027,5.936-0.37,8.29-1.723c2.092-1.203,4.526-3.377,5.16-6.094
				c0.621-2.66-0.636-5.335-3.034-5.519c-3.327-0.256-7.588,5.248-8.979,8.487c-0.105,0.244-1.227,3.739-1.476,4.64
				c-0.461-2.528-0.9-5.055-1.243-7.576c-0.477-3.478-0.776-6.941-0.847-10.346c0.215-0.012,5.927-0.34,8.338-1.726
				c2.092-1.203,4.526-3.377,5.16-6.094c0.621-2.66-0.636-5.335-3.034-5.519c-3.327-0.256-7.588,5.248-8.979,8.487
				c-0.092,0.213-0.949,2.874-1.331,4.148c-0.105-0.008-0.086-0.007-0.19-0.015c-0.038-3.653,0.326-7.246,0.809-10.605
				c0.276-1.946,0.634-3.8,1.016-5.598c1.058,0.065,5.902,0.3,8.167-0.684c2.17-0.942,4.77-2.817,5.653-5.467
				c0.864-2.595-0.116-5.445-2.454-5.936c-3.245-0.682-7.957,4.307-9.633,7.386c-0.091,0.168-0.865,1.969-1.413,3.289
				c0.183-0.81,0.359-1.648,0.547-2.421c0.701-2.905,1.494-5.534,2.213-7.857c0.418-1.318,0.817-2.503,1.2-3.609
				c1.123-0.569,5.63-2.926,7.323-4.929c1.651-1.954,3.331-4.922,3.094-7.62C111.691,272.849,109.633,270.98,107.25,271.82z"/>
			<path style="fill:#C6FF00;" d="M39.409,329c2.628,0.004,8.233-2.87,8.238-2.872c0.058-0.03-2.388-3.523-2.566-3.721
				c-2.063-2.282-7.34-5.145-10.39-3.123c-2.197,1.457-2.744,4.632-1.538,6.785C34.384,328.268,37.171,328.996,39.409,329z"/>
		</g>
		<g style="opacity:0.5;">
			<path style="fill:#FFFFFF;" d="M96.905,302.735c0.059,0.011-0.166-4.671-0.21-4.961c-0.509-3.356-3.237-9.29-6.578-9.444
				c-2.407-0.111-4.354,2.367-4.45,5.058c-0.098,2.75,1.719,5.185,3.457,6.624C91.165,301.702,96.901,302.734,96.905,302.735z"/>
			<path style="fill:#FFFFFF;" d="M107.25,271.82c-3.307,1.165-5.714,7.88-6.048,11.364c-0.028,0.301-0.015,5.015,0.044,4.986
				c0,0,0.055-0.027,0.068-0.034c-0.387,1.057-0.791,2.195-1.212,3.446c-0.762,2.315-1.606,4.937-2.363,7.842
				c-0.763,2.902-1.523,6.071-2.069,9.463c-0.551,3.399-0.983,6.989-1.019,10.706c-0.001,0.042,0.004,0.085,0.004,0.127
				c-0.283-1.056-1.163-3.968-1.253-4.18c-1.275-2.99-5.343-7.714-8.692-6.834c-2.412,0.635-3.775,3.555-3.252,6.108
				c0.534,2.607,2.895,4.333,4.949,5.147c2.316,0.919,7.821,0.231,8.259,0.174c-0.005,3.537,0.239,7.137,0.662,10.744
				c0.24,2.063,0.538,4.125,0.86,6.186c-0.271-0.901-0.519-1.703-0.565-1.81c-1.275-2.99-5.343-7.714-8.692-6.833
				c-2.413,0.635-3.775,3.555-3.252,6.107c0.534,2.607,2.895,4.332,4.949,5.148c2.085,0.827,6.778,0.348,8.02,0.203
				c0.131,0.788,0.254,1.578,0.388,2.365c0.64,3.777,1.294,7.542,1.835,11.269c0.192,1.313,0.337,2.62,0.487,3.925
				c-0.242-0.799-0.451-1.47-0.492-1.567c-1.275-2.99-5.343-7.715-8.692-6.834c-2.412,0.635-3.775,3.555-3.252,6.108
				c0.534,2.606,2.895,4.332,4.949,5.147c1.989,0.789,6.321,0.392,7.797,0.227c0.118,1.347,0.238,2.695,0.299,4.013
				c0.024,0.903,0.101,1.764,0.081,2.678c-0.003,0.903-0.007,1.797-0.01,2.682c-0.061,1.711-0.114,3.476-0.21,5.148
				c-0.059,1.162-0.134,2.271-0.206,3.388c-0.176-1.311-0.57-3.865-0.625-4.071c-0.562-2.144-2.226-5.266-4.268-7.038
				c-0.082-0.317-0.187-0.622-0.321-0.911c-1.05-2.271-3.631-3.086-5.68-1.338c-2.845,2.425-3.081,9.448-2.317,12.71
				c0.045,0.192,0.743,2.193,1.202,3.444c-0.371-0.676-0.725-1.339-1.115-2.029c-0.763-1.371-1.562-2.71-2.416-4.154
				c-0.435-0.678-0.875-1.362-1.32-2.054c-0.427-0.698-0.961-1.363-1.442-2.055c-1.15-1.572-2.386-3.092-3.664-4.588
				c1.111-0.903,5.024-4.171,6.316-6.459c1.286-2.276,2.412-5.527,1.674-8.044c-0.723-2.465-3.125-3.738-5.35-2.345
				c-3.087,1.934-4.243,8.944-3.928,12.354c0.02,0.213,0.487,2.602,0.766,3.905c-0.775-0.891-1.544-1.786-2.356-2.655
				c-2.344-2.51-4.793-4.957-7.225-7.413c-0.746-0.751-1.479-1.512-2.217-2.269c0.398-0.317,5.111-4.094,6.559-6.655
				c1.287-2.276,2.412-5.527,1.674-8.045c-0.723-2.465-3.126-3.738-5.35-2.345c-3.087,1.935-4.242,8.944-3.929,12.354
				c0.024,0.257,0.701,3.693,0.91,4.552c-1.623-1.669-3.226-3.351-4.741-5.092c-2.094-2.398-4.02-4.897-5.717-7.499
				c0.186-0.147,5.118-4.065,6.6-6.688c1.287-2.276,2.413-5.527,1.674-8.045c-0.723-2.465-3.126-3.738-5.35-2.345
				c-3.087,1.935-4.242,8.944-3.928,12.354c0.02,0.224,0.534,2.844,0.804,4.08c-0.097,0.061-0.079,0.05-0.176,0.11
				c-1.787-2.816-3.186-5.841-4.367-8.763c-0.687-1.69-1.258-3.36-1.78-5.003c0.974-0.628,5.402-3.552,6.948-5.768
				c1.481-2.124,2.898-5.248,2.413-7.873c-0.475-2.571-2.715-4.157-5.033-3.04c-3.218,1.551-5.022,8.45-5.04,11.918
				c-0.001,0.189,0.174,2.085,0.318,3.462c-0.225-0.747-0.471-1.511-0.674-2.233c-0.769-2.707-1.323-5.259-1.798-7.526
				c-0.26-1.292-0.473-2.47-0.662-3.575c0.728-1.163,3.612-5.884,4.16-8.526c0.534-2.578,0.607-5.961-0.898-7.907
				c-1.474-1.905-4.204-2.038-5.924,0.142c-2.387,3.026-1.31,9.788,0.063,12.711c0.119,0.252,2.392,3.908,2.431,3.847
				c0,0,0.035-0.056,0.044-0.07c0.163,1.07,0.348,2.214,0.573,3.455c0.431,2.288,0.937,4.867,1.657,7.611
				c0.712,2.744,1.555,5.696,2.695,8.681c1.139,2.995,2.476,6.063,4.228,8.974c0.02,0.033,0.044,0.064,0.064,0.096
				c-0.758-0.639-2.939-2.338-3.121-2.445c-2.57-1.506-8.46-2.57-11.021,0.262c-1.845,2.04-1.658,5.183,0.033,6.832
				c1.727,1.684,4.657,1.511,6.878,0.827c2.505-0.771,7.079-4.835,7.441-5.16c1.692,2.753,3.637,5.394,5.744,7.926
				c1.203,1.449,2.458,2.861,3.733,4.256c-0.674-0.526-1.28-0.991-1.371-1.045c-2.57-1.506-8.461-2.569-11.021,0.262
				c-1.845,2.04-1.658,5.183,0.033,6.832c1.726,1.685,4.657,1.511,6.878,0.828c2.254-0.694,6.205-4.075,7.242-4.985
				c0.495,0.529,0.983,1.063,1.479,1.59c2.383,2.525,4.771,5.032,7.04,7.582c0.8,0.898,1.557,1.82,2.317,2.739
				c-0.599-0.467-1.107-0.854-1.191-0.903c-2.57-1.506-8.46-2.57-11.021,0.262c-1.845,2.04-1.658,5.183,0.033,6.832
				c1.726,1.684,4.657,1.51,6.878,0.827c2.151-0.662,5.819-3.748,7.055-4.823c0.751,0.971,1.505,1.942,2.191,2.927
				c0.454,0.687,0.936,1.306,1.356,2.029c0.43,0.704,0.856,1.401,1.278,2.091c0.766,1.369,1.565,2.776,2.282,4.137
				c0.505,0.941,0.971,1.851,1.442,2.766c-0.786-0.906-2.362-2.638-2.51-2.764c-2.301-1.965-7.892-4.07-10.757-1.677
				c-2.063,1.724-2.295,4.912-0.868,6.865c1.458,1.995,4.332,2.337,6.582,2.042c2.478-0.325,7.278-3.449,7.876-3.843
				c0.775,1.517,1.515,3.003,2.193,4.419c2.361,4.905,4.155,9.114,5.372,12.079c0.043,0.106,0.082,0.201,0.123,0.302l2.187-1.059
				c-0.082-0.191-0.163-0.378-0.252-0.582c-1.291-2.962-3.187-7.156-5.669-12.037c-0.781-1.545-1.644-3.174-2.544-4.836
				c0.328-0.348,2.187-2.34,3.74-4.43c2.213,1.186,7.094,1.465,7.725,1.495c-0.126,1.848-0.263,3.646-0.416,5.344
				c-0.518,5.884-1.142,10.784-1.619,14.206c-0.02,0.141-0.038,0.265-0.057,0.4l2.404-1.164c0.4-3.404,0.884-8.011,1.262-13.466
				c0.134-1.877,0.245-3.882,0.342-5.94c0.645-0.152,5.915-1.43,8.057-3.127c1.942-1.539,4.1-4.083,4.379-6.837
				c0.273-2.697-1.342-5.078-3.773-4.835c-3.375,0.337-6.927,6.442-7.897,9.838c-0.058,0.2-0.474,2.43-0.718,3.839
				c0.036-0.84,0.079-1.657,0.106-2.522c0.065-1.711,0.086-3.415,0.114-5.25c-0.013-0.883-0.026-1.775-0.04-2.676
				c0.003-0.896-0.092-1.831-0.135-2.755c-0.139-2.137-0.371-4.284-0.647-6.437c1.297-0.092,5.905-0.495,8.007-1.704
				c2.092-1.203,4.526-3.377,5.16-6.094c0.621-2.66-0.636-5.335-3.034-5.519c-3.327-0.256-7.587,5.248-8.979,8.488
				c-0.087,0.202-0.87,2.63-1.278,3.971c-0.175-1.292-0.343-2.582-0.558-3.877c-0.618-3.739-1.347-7.49-2.059-11.236
				c-0.219-1.148-0.424-2.295-0.634-3.443c0.461-0.027,5.936-0.37,8.29-1.723c2.092-1.203,4.526-3.377,5.16-6.094
				c0.621-2.66-0.636-5.335-3.034-5.519c-3.327-0.256-7.588,5.248-8.979,8.487c-0.105,0.244-1.227,3.739-1.476,4.64
				c-0.461-2.528-0.9-5.055-1.243-7.576c-0.477-3.478-0.776-6.941-0.847-10.346c0.215-0.012,5.927-0.34,8.338-1.726
				c2.092-1.203,4.526-3.377,5.16-6.094c0.621-2.66-0.636-5.335-3.034-5.519c-3.327-0.256-7.588,5.248-8.979,8.487
				c-0.092,0.213-0.949,2.874-1.331,4.148c-0.105-0.008-0.086-0.007-0.19-0.015c-0.038-3.653,0.326-7.246,0.809-10.605
				c0.276-1.946,0.634-3.8,1.016-5.598c1.058,0.065,5.902,0.3,8.167-0.684c2.17-0.942,4.77-2.817,5.653-5.467
				c0.864-2.595-0.116-5.445-2.454-5.936c-3.245-0.682-7.957,4.307-9.633,7.386c-0.091,0.168-0.865,1.969-1.413,3.289
				c0.183-0.81,0.359-1.648,0.547-2.421c0.701-2.905,1.494-5.534,2.213-7.857c0.418-1.318,0.817-2.503,1.2-3.609
				c1.123-0.569,5.63-2.926,7.323-4.929c1.651-1.954,3.331-4.922,3.094-7.62C111.691,272.849,109.633,270.98,107.25,271.82z"/>
			<path style="fill:#FFFFFF;" d="M39.409,329c2.628,0.004,8.233-2.87,8.238-2.872c0.058-0.03-2.388-3.523-2.566-3.721
				c-2.063-2.282-7.34-5.145-10.39-3.123c-2.197,1.457-2.744,4.632-1.538,6.785C34.384,328.268,37.171,328.996,39.409,329z"/>
		</g>
	</g>
</g>
<g id="Character">
	
		<line style="fill:none;stroke:#263238;stroke-width:2;stroke-linecap:round;stroke-linejoin:round;stroke-miterlimit:10;" x1="69" y1="401.667" x2="452.903" y2="401.667"/>
	<g>
		<g>
			<defs>
				<path id="XMLID_4_" d="M224.912,401.667L210.35,281.196c0,0-22-16-28.333-16.333c-6.333-0.333-9.333-0.333-12.667,0
					c0,0-41.667,15-41.667,18c0,2.85-1.804,108.247-1.985,118.804H224.912z"/>
			</defs>
			<use xlink:href="#XMLID_4_"  style="overflow:visible;fill:#C6FF00;"/>
			<clipPath id="XMLID_00000157995513055535040270000010289032371473539983_">
				<use xlink:href="#XMLID_4_"  style="overflow:visible;"/>
			</clipPath>
			<polygon style="opacity:0.3;clip-path:url(#XMLID_00000157995513055535040270000010289032371473539983_);" points="
				212.255,401.667 191.737,287.632 197.656,401.667 			"/>
			
				<use xlink:href="#XMLID_4_"  style="overflow:visible;fill:none;stroke:#263238;stroke-linecap:round;stroke-linejoin:round;stroke-miterlimit:10;"/>
		</g>
		<g>
			<path style="fill:#263238;stroke:#263238;stroke-linecap:round;stroke-linejoin:round;stroke-miterlimit:10;" d="
				M223.683,284.862c-1.333-2.667-23.333-11.667-23.333-11.667s-1.333-2.667-5-5.667c-3.667-3-16.667-5.333-21.333-5.333
				c-4.667,0-8.333,2-12.667,2.667c-4.333,0.667-7,5-7,5s-36.333,12-39,12.667c-2.667,0.667-4.333,6.667-3.333,18.333
				c0.955,11.146,7.69,93.472,8.29,100.804h46.052c0.116-6.807,1.324-77.684,1.324-88.471c0-11.333-1.333-42.667-1.333-42.667
				c3.333-3,6.667-3.667,15.333-2c8.667,1.667,8,9.333,8,9.333l17.234,123.804h19.334l-3.901-28.138c0,0,4,7,7,8.667
				c3,1.667,18.499,4.553,22.499-2.113C255.849,373.416,225.017,287.529,223.683,284.862z"/>
			<path style="fill:#263238;stroke:#FFFFFF;stroke-linecap:round;stroke-linejoin:round;stroke-miterlimit:10;" d="
				M154.821,271.823l-6.504,28.453c0,0,9.755,2.032,12.194,3.658c2.439,1.626,4.878,9.349,4.878,9.349"/>
			<path style="fill:#263238;stroke:#FFFFFF;stroke-linecap:round;stroke-linejoin:round;stroke-miterlimit:10;" d="
				M201.159,276.294l7.723,22.762c0,0-5.691-0.813-8.536,2.032c-2.845,2.845-1.626,17.478-1.626,17.478"/>
		</g>
		<g>
			<defs>
				<path id="XMLID_2_" d="M165.35,232.779c0,0,2.25,21.25,1.5,30.25c-0.75,9,1,21,6.5,28.25s12.5,8.5,15-1.75s3-30.75,3-30.75
					s-9.75-4-17-17.5S165.35,232.779,165.35,232.779z"/>
			</defs>
			<use xlink:href="#XMLID_2_"  style="overflow:visible;fill:#FFFFFF;"/>
			<clipPath id="XMLID_00000183931028942195913390000000570862529032294331_">
				<use xlink:href="#XMLID_2_"  style="overflow:visible;"/>
			</clipPath>
			<path style="clip-path:url(#XMLID_00000183931028942195913390000000570862529032294331_);fill:#C6FF00;" d="M190.731,271.115
				c0.483-6.775,0.619-12.336,0.619-12.336s-9.75-4-17-17.5s-9-8.5-9-8.5s2.25,21.25,1.5,30.25
				c-0.497,5.96,0.113,13.23,2.172,19.571c1.408-1.82,2.515-3.244,2.515-3.244s1.494-0.213,8.322-1.707
				C184.334,276.671,188.431,273.316,190.731,271.115z"/>
			<path style="opacity:0.5;clip-path:url(#XMLID_00000183931028942195913390000000570862529032294331_);fill:#FFFFFF;" d="
				M190.731,271.115c0.483-6.775,0.619-12.336,0.619-12.336s-9.75-4-17-17.5s-9-8.5-9-8.5s2.25,21.25,1.5,30.25
				c-0.497,5.96,0.113,13.23,2.172,19.571c1.408-1.82,2.515-3.244,2.515-3.244s1.494-0.213,8.322-1.707
				C184.334,276.671,188.431,273.316,190.731,271.115z"/>
			
				<use xlink:href="#XMLID_2_"  style="overflow:visible;fill:none;stroke:#263238;stroke-linecap:round;stroke-linejoin:round;stroke-miterlimit:10;"/>
		</g>
		<g>
			<path style="fill:#FFFFFF;stroke:#263238;stroke-linecap:round;stroke-linejoin:round;stroke-miterlimit:10;" d="M215.4,226.88
				c0,0,1,8.25-1.25,11.75s-4.25,7-4.5,4.5s1.5-15.75,1.5-15.75S212.15,222.88,215.4,226.88z"/>
			<g>
				<defs>
					<path id="XMLID_1_" d="M159.9,226.63c0,0-4.75-1.5-5.5,3.25s3,12.5,5.25,14.75s5-0.25,5-0.25s2.25,10.25,6.5,15.75
						s12.75,11,19.75,8.75s15.5-15.75,18.75-23.25s1.75-14.25,3-18s-4.5-18-9.25-21s-32.5,7.75-37.75,11.75
						S159.9,226.63,159.9,226.63z"/>
				</defs>
				<use xlink:href="#XMLID_1_"  style="overflow:visible;fill:#FFFFFF;"/>
				<clipPath id="XMLID_00000114056694118504800120000010920167501332715160_">
					<use xlink:href="#XMLID_1_"  style="overflow:visible;"/>
				</clipPath>
				<path style="clip-path:url(#XMLID_00000114056694118504800120000010920167501332715160_);fill:#C6FF00;" d="M196.067,265.585
					c-8.829,4.121-14.337,1.744-20.049-7.566c-5.761-9.389-7.255-25.606-7.255-25.606s0.186-8.719-2.94-14.156
					c-0.055,0.04-0.122,0.084-0.173,0.123c-5.25,4-5.75,8.25-5.75,8.25s-4.75-1.5-5.5,3.25s3,12.5,5.25,14.75s5-0.25,5-0.25
					s2.25,10.25,6.5,15.75s12.75,11,19.75,8.75C192.567,268.344,194.32,267.164,196.067,265.585z"/>
				<path style="opacity:0.5;clip-path:url(#XMLID_00000114056694118504800120000010920167501332715160_);fill:#FFFFFF;" d="
					M196.067,265.585c-8.829,4.121-14.337,1.744-20.049-7.566c-5.761-9.389-7.255-25.606-7.255-25.606s0.186-8.719-2.94-14.156
					c-0.055,0.04-0.122,0.084-0.173,0.123c-5.25,4-5.75,8.25-5.75,8.25s-4.75-1.5-5.5,3.25s3,12.5,5.25,14.75s5-0.25,5-0.25
					s2.25,10.25,6.5,15.75s12.75,11,19.75,8.75C192.567,268.344,194.32,267.164,196.067,265.585z"/>
				
					<use xlink:href="#XMLID_1_"  style="overflow:visible;fill:none;stroke:#263238;stroke-linecap:round;stroke-linejoin:round;stroke-miterlimit:10;"/>
			</g>
			<path style="fill:#263238;stroke:#263238;stroke-linecap:round;stroke-linejoin:round;stroke-miterlimit:10;" d="M176.15,232.13
				c0,0,12,0.75,13-0.75s-3.75-1.75-8.25-1.5S173.15,230.88,176.15,232.13z"/>
			<path style="fill:#263238;stroke:#263238;stroke-linecap:round;stroke-linejoin:round;stroke-miterlimit:10;" d="M208.65,228.88
				c0,0-9,0.25-10.25,1.75s9,0.75,10.75,0.25S210.65,228.38,208.65,228.88z"/>
			<path style="fill:none;stroke:#263238;stroke-linecap:round;stroke-linejoin:round;stroke-miterlimit:10;" d="M176.15,236.88
				c0,0,2.25,2.25,6.5,2.25s6.25-2.5,6.25-2.5"/>
			<path style="fill:none;stroke:#263238;stroke-linecap:round;stroke-linejoin:round;stroke-miterlimit:10;" d="M198.4,237.38
				c0,0,2,2,5.25,2s4.75-2.5,4.75-2.5"/>
			<path style="fill:none;stroke:#263238;stroke-linecap:round;stroke-linejoin:round;stroke-miterlimit:10;" d="M197.4,232.13
				c0,0-2.5,1.5-2,5s1,11-0.25,11.75s-3,1.75-4.5-0.25s-1.5-2-1.5-2"/>
			<path style="fill:none;stroke:#263238;stroke-linecap:round;stroke-linejoin:round;stroke-miterlimit:10;" d="M193.4,255.88
				c0,0-0.25,1-5.5,0.5"/>
		</g>
		<g>
			<g>
				<defs>
					<path id="XMLID_3_" d="M177.15,179.13c0,0-17.25,1.25-24.75,13.25s1.5,29.25,3.5,31.75s3.75,7.25,4.25,10.25s3.25,8.5,4.25,8.5
						s-1-3.5,0.5-5.5s5.5-5,5.5-5s-2.75,5.5-0.25,4.25s12.5-9,13.25-9s-0.5,4.75,4.5,0.25s15.5-12.25,15.5-12.25s4.5,10,6.25,12.25
						s2.25,5.75,2.25,5.75s3.25-3,4.5-9.75s-1.75-18.5-1.75-18.5s2.25-4.5-1.25-12.5S196.9,175.63,177.15,179.13z"/>
				</defs>
				<use xlink:href="#XMLID_3_"  style="overflow:visible;fill:#263238;"/>
				<clipPath id="XMLID_00000021800404285207769430000011733276208382298272_">
					<use xlink:href="#XMLID_3_"  style="overflow:visible;"/>
				</clipPath>
				<path style="opacity:0.2;clip-path:url(#XMLID_00000021800404285207769430000011733276208382298272_);fill:#FFFFFF;" d="
					M214.65,205.38c0,0,2.25-4.5-1.25-12.5c-2.873-6.566-12.15-13.969-26.303-14.478c3.662,1.096,9.581,3.39,8.511,5.529
					c-1.473,2.946-18.856,12.08-14.731,11.785c4.125-0.295,18.267-10.017,19.151-3.83c0.884,6.187-25.338,20.329-20.035,21.213
					c5.303,0.884,29.757-20.624,25.338-12.964c-3.707,6.425-16.732,23.619-17.886,28.132c0.151-0.128,0.291-0.241,0.455-0.388
					c5-4.5,15.5-12.25,15.5-12.25s0.165,0.368,0.444,0.975c4.123-3.974,7.379-7.335,7.379-7.335s0.884,3.536,1.473,10.017
					c0.257,2.829-0.945,6.836-1.94,10.478c0.865,1.921,1.144,3.865,1.144,3.865s3.25-3,4.5-9.75S214.65,205.38,214.65,205.38z"/>
				
					<use xlink:href="#XMLID_3_"  style="overflow:visible;fill:none;stroke:#263238;stroke-linecap:round;stroke-linejoin:round;stroke-miterlimit:10;"/>
			</g>
			<g>
				<path style="fill:none;stroke:#FFFFFF;stroke-linecap:round;stroke-linejoin:round;stroke-miterlimit:10;" d="M206.273,206.257
					c-1.213,1.658-2.659,3.513-4.301,5.408c-5.284,6.097-9.755,10.162-9.755,10.162"/>
				<path style="fill:none;stroke:#FFFFFF;stroke-linecap:round;stroke-linejoin:round;stroke-miterlimit:10;" d="M210.507,199.878
					c0,0-0.701,1.226-1.98,3.15"/>
				<path style="fill:none;stroke:#FFFFFF;stroke-linecap:round;stroke-linejoin:round;stroke-miterlimit:10;" d="M194.655,209.227
					c0,0-6.504,8.942-12.601,13.82"/>
				<path style="fill:none;stroke:#FFFFFF;stroke-linecap:round;stroke-linejoin:round;stroke-miterlimit:10;" d="M165.788,230.488
					c-0.688,0.413-1.365,0.782-2.025,1.095"/>
				<path style="fill:none;stroke:#FFFFFF;stroke-linecap:round;stroke-linejoin:round;stroke-miterlimit:10;" d="M181.648,216.543
					c0,0-5.492,6.151-11.47,10.863"/>
				
					<line style="fill:none;stroke:#FFFFFF;stroke-linecap:round;stroke-linejoin:round;stroke-miterlimit:10;" x1="213.353" y1="207.194" x2="206.036" y2="214.917"/>
			</g>
		</g>
		<g>
			<g>
				<path style="fill:#FFFFFF;stroke:#263238;stroke-linecap:round;stroke-linejoin:round;stroke-miterlimit:10;" d="
					M166.072,334.031l10.374-5.82c0,0,11.892-18.977,14.423-21.761c2.53-2.783,29.098-5.314,30.364-4.301
					c1.265,1.012-2.53,3.036-5.567,4.301c-3.036,1.265-12.904,1.518-13.917,2.783c-1.012,1.265-2.53,6.832-2.53,6.832
					s8.462-2.743,10.739-2.996c2.277-0.253,2.906,0.752,1.388,2.776c-1.518,2.024-4.03,2.75-6.307,3.256
					c-2.277,0.506-7.085,1.265-7.085,1.265s-3.795,6.832-6.326,7.591s-4.036,0.073-4.036,0.073s-3.555,5.493-6.085,6.253
					c-2.53,0.759-3.542,0.759-3.542,0.759l-9.868,11.133L166.072,334.031z"/>
				<path style="fill:#FFFFFF;stroke:#263238;stroke-linecap:round;stroke-linejoin:round;stroke-miterlimit:10;" d="
					M188.171,313.092c0,0,0.48-9.435,2.183-10.767c1.703-1.332,9.69-0.396,11.201,0.189c1.511,0.586,6.354,7.55,6.975,8.681
					c0.621,1.131,0.76,2.414-0.841,2.387c-1.6-0.027-5.747-5.619-5.747-5.619l-7.821-1.253l-2.392,4.201"/>
				<path style="fill:#FFFFFF;stroke:#263238;stroke-linecap:round;stroke-linejoin:round;stroke-miterlimit:10;" d="
					M184.543,316.825c0,0,3.289-8.856,5.314-9.615c2.024-0.759,9.362,2.53,10.627,3.542c1.265,1.012,3.796,9.109,4.049,10.374
					c0.253,1.265,0,2.53-1.518,2.024c-1.518-0.506-3.795-7.085-3.795-7.085l-7.085-3.543l-3.542,3.289"/>
				<path style="fill:#FFFFFF;stroke:#263238;stroke-linecap:round;stroke-linejoin:round;stroke-miterlimit:10;" d="
					M182.012,319.861c0,0,5.82-8.603,7.085-9.109c1.265-0.506,9.362,4.555,10.121,5.314c0.759,0.759-0.759,8.35-1.771,9.109
					c-1.012,0.759-1.518,0.759-1.518-1.518c0-2.277-0.253-4.302-0.253-4.302l-7.338-1.518c0,0,0.253,5.061-0.759,7.338"/>
			</g>
			<g>
				<g>
					<path style="fill:#263238;stroke:#263238;stroke-linecap:round;stroke-linejoin:round;stroke-miterlimit:10;" d="
						M121.209,282.047c0,0-18.526,2.149-18.859,5.816c-0.333,3.667,2.667,41.667,2.667,61c0,19.333,1.333,40.333,6,41.667
						c4.667,1.333,61.667-39.667,61.667-39.667l-5.346-17.844l-32.32,10.844l-0.333-36.333"/>
					<path style="fill:#263238;stroke:#FFFFFF;stroke-linecap:round;stroke-linejoin:round;stroke-miterlimit:10;" d="
						M135.31,313.69l-0.294,30.173c0,0-17.667,7.667-21.667,12"/>
				</g>
				
					<line style="fill:#263238;stroke:#FFFFFF;stroke-linecap:round;stroke-linejoin:round;stroke-miterlimit:10;" x1="135.017" y1="343.862" x2="166.072" y2="334.031"/>
			</g>
		</g>
		<g>
			<g>
				<path style="fill:#FFFFFF;stroke:#263238;stroke-linecap:round;stroke-linejoin:round;stroke-miterlimit:10;" d="
					M226.378,340.784l-17.24-6.094c-1.426-0.504-2.173-2.068-1.669-3.494l14.389-40.71c0.504-1.426,2.068-2.173,3.494-1.669
					l17.24,6.094c1.426,0.504,2.173,2.068,1.669,3.494l-14.389,40.71C229.368,340.54,227.803,341.288,226.378,340.784z"/>
				<path style="fill:#FFFFFF;stroke:#263238;stroke-linecap:round;stroke-linejoin:round;stroke-miterlimit:10;" d="
					M227.915,293.698c0,0.669-0.543,1.212-1.212,1.212s-1.212-0.543-1.212-1.212s0.543-1.212,1.212-1.212
					S227.915,293.029,227.915,293.698z"/>
			</g>
			<g>
				<polygon style="fill:#FFFFFF;stroke:#263238;stroke-linecap:round;stroke-linejoin:round;stroke-miterlimit:10;" points="
					208.873,363.598 216.717,351.958 222.79,359.802 				"/>
				<g>
					<g>
						<path style="fill:#FFFFFF;stroke:#263238;stroke-linecap:round;stroke-linejoin:round;stroke-miterlimit:10;" d="
							M221.367,345.012c0,0,18.083-16.041,18.589-18.572s-3.715-8.95-7.844-20.749c-1.308-3.738-3.036-0.759-2.783,1.265
							c0.253,2.024,1.332,5.419,2.024,8.603c0.38,1.748,1.943,7.045,1.943,7.045s-7.022-7.543-9.299-10.074
							s-4.789-4.815-5.042-2.791s2.024,5.314,3.289,6.579c1.265,1.265,5.938,8.145,5.938,8.145l1.906,5.265
							c0,0-5.151-4.848-7.176-7.125c-2.024-2.277-6.235-6.539-7.5-6.033c-1.265,0.506-1.012,2.53,0,3.796
							c1.012,1.265,4.163,4.438,5.175,5.957c1.012,1.518,5.958,6.948,5.958,6.948s-3.036-1.012-6.326-2.024
							c-3.289-1.012-9.109-3.036-9.868-3.796c-0.759-0.759-2.024,0-1.265,1.771c0.759,1.771,2.277,1.518,4.808,2.783
							c2.53,1.265,5.061,3.036,5.061,3.036s-5.987,5.042-7.252,9.09c-1.265,4.048,3.048,8.798,3.807,12.593
							c0.759,3.796,6.736,13.472,6.736,13.472l7.029-14.057L221.367,345.012z"/>
						
							<line style="fill:none;stroke:#263238;stroke-linecap:round;stroke-linejoin:round;stroke-miterlimit:10;" x1="218.955" y1="335.043" x2="224.522" y2="338.585"/>
					</g>
					<path style="fill:none;stroke:#263238;stroke-linecap:round;stroke-linejoin:round;stroke-miterlimit:10;" d="M233.296,322.604
						c0,0,1.86,2.635,1.86,3.409c0,0.775-0.62,1.705-0.62,1.705"/>
					<path style="fill:none;stroke:#263238;stroke-linecap:round;stroke-linejoin:round;stroke-miterlimit:10;" d="M230.088,329.729
						c0,0,0.728,1.554-0.047,3.104"/>
				</g>
				<g>
					<path style="fill:#263238;stroke:#263238;stroke-linecap:round;stroke-linejoin:round;stroke-miterlimit:10;" d="
						M227.345,352.718l-18.471,10.88c0,0,12.905,16.447,19.483,20.749c6.579,4.301,15.688,4.555,21.001-0.759
						c5.314-5.314,4.278-20.404-3.542-23.532C240.755,358.031,227.345,352.718,227.345,352.718z"/>
					
						<line style="fill:#263238;stroke:#FFFFFF;stroke-linecap:round;stroke-linejoin:round;stroke-miterlimit:10;" x1="227.345" y1="352.718" x2="245.816" y2="360.056"/>
				</g>
			</g>
		</g>
	</g>
</g>
<g id="Device">
	<g>
		<g>
			<path style="fill:#FFFFFF;stroke:#263238;stroke-width:2;stroke-linecap:round;stroke-linejoin:round;stroke-miterlimit:10;" d="
				M427.836,432H266.891c-4.238,0-7.674-3.436-7.674-7.674V106.674c0-4.239,3.436-7.674,7.674-7.674h160.945
				c4.239,0,7.674,3.436,7.674,7.674v317.651C435.511,428.564,432.075,432,427.836,432z"/>
			<g>
				<defs>
					<rect id="XMLID_5_" x="267.052" y="135.565" width="160.623" height="259.87"/>
				</defs>
				<use xlink:href="#XMLID_5_"  style="overflow:visible;fill:#263238;"/>
				<clipPath id="XMLID_00000090294836991267538880000018085877775799605649_">
					<use xlink:href="#XMLID_5_"  style="overflow:visible;"/>
				</clipPath>
				
					<polygon style="opacity:0.3;clip-path:url(#XMLID_00000090294836991267538880000018085877775799605649_);fill:#FFFFFF;" points="
					427.675,308.117 277.942,395.435 427.675,395.435 				"/>
				
					<use xlink:href="#XMLID_5_"  style="overflow:visible;fill:none;stroke:#263238;stroke-linecap:round;stroke-linejoin:round;stroke-miterlimit:10;"/>
			</g>
			<path style="fill:#263238;" d="M364.825,117.376h-34.922c-1.315,0-2.381-1.066-2.381-2.381l0,0c0-1.315,1.066-2.381,2.381-2.381
				h34.922c1.315,0,2.381,1.066,2.381,2.381l0,0C367.206,116.31,366.14,117.376,364.825,117.376z"/>
			<path style="fill:#FFFFFF;stroke:#263238;stroke-width:0.7043;stroke-miterlimit:10;" d="M356.887,410.109
				c0-5.26-4.264-9.524-9.524-9.524c-5.26,0-9.524,4.264-9.524,9.524s4.264,9.524,9.524,9.524
				C352.624,419.633,356.887,415.369,356.887,410.109z"/>
			<rect x="342.536" y="405.281" style="fill:#263238;" width="9.654" height="9.654"/>
		</g>
		<g>
			<defs>
				<path id="XMLID_6_" d="M372.006,222.667h-49.285c-2.239,0-4.053-1.815-4.053-4.053V166.4c0-2.239,1.815-4.053,4.053-4.053
					h49.285c2.239,0,4.053,1.815,4.053,4.053v52.213C376.06,220.852,374.245,222.667,372.006,222.667z"/>
			</defs>
			<use xlink:href="#XMLID_6_"  style="overflow:visible;fill:#C6FF00;"/>
			<clipPath id="XMLID_00000074417392395019013730000009819990749535790741_">
				<use xlink:href="#XMLID_6_"  style="overflow:visible;"/>
			</clipPath>
			<path style="opacity:0.22;clip-path:url(#XMLID_00000074417392395019013730000009819990749535790741_);" d="M318.668,211.167
				v7.446c0,2.239,1.815,4.053,4.053,4.053h49.285c2.239,0,4.053-1.815,4.053-4.053v-48.878
				C347.632,181.477,328.846,199.3,318.668,211.167z"/>
			<path style="clip-path:url(#XMLID_00000074417392395019013730000009819990749535790741_);fill:#263238;" d="M371.736,188.707
				h-4.306c-0.19-1.009-0.454-1.992-0.786-2.943l3.727-2.152c0.384-0.221,0.515-0.712,0.294-1.096l-2.998-5.192
				c-0.221-0.384-0.712-0.515-1.096-0.294l-3.732,2.155c-0.663-0.77-1.383-1.489-2.152-2.152l2.155-3.732
				c0.222-0.384,0.09-0.874-0.294-1.096l-5.192-2.998c-0.384-0.221-0.874-0.09-1.096,0.294l-2.152,3.727
				c-0.951-0.333-1.934-0.596-2.943-0.786v-4.306c0-0.443-0.359-0.802-0.802-0.802h-5.995c-0.443,0-0.802,0.359-0.802,0.802v4.306
				c-1.009,0.19-1.992,0.454-2.944,0.786l-2.152-3.727c-0.221-0.384-0.712-0.515-1.096-0.294l-5.192,2.998
				c-0.384,0.222-0.515,0.712-0.294,1.096l2.155,3.732c-0.77,0.663-1.489,1.383-2.152,2.153l-3.732-2.155
				c-0.384-0.222-0.875-0.09-1.096,0.294l-2.998,5.192c-0.221,0.384-0.09,0.874,0.294,1.096l3.727,2.152
				c-0.333,0.951-0.596,1.934-0.786,2.943h-4.306c-0.443,0-0.802,0.359-0.802,0.802v5.995c0,0.443,0.359,0.802,0.802,0.802h4.306
				c0.19,1.009,0.454,1.992,0.786,2.943l-3.727,2.152c-0.384,0.222-0.515,0.712-0.294,1.096l2.998,5.192
				c0.221,0.384,0.712,0.515,1.096,0.294l3.732-2.155c0.663,0.77,1.383,1.489,2.153,2.153l-2.155,3.732
				c-0.222,0.384-0.09,0.874,0.294,1.096l5.192,2.998c0.384,0.222,0.875,0.09,1.096-0.294l2.152-3.727
				c0.951,0.333,1.934,0.596,2.943,0.786v4.306c0,0.443,0.359,0.802,0.802,0.802h5.995c0.443,0,0.802-0.359,0.802-0.802v-4.306
				c1.009-0.19,1.992-0.454,2.943-0.786l2.152,3.727c0.221,0.384,0.712,0.515,1.096,0.294l5.192-2.998
				c0.384-0.222,0.515-0.712,0.294-1.096l-2.155-3.732c0.77-0.663,1.489-1.383,2.152-2.153l3.732,2.155
				c0.384,0.221,0.875,0.09,1.096-0.294l2.998-5.192c0.222-0.384,0.09-0.874-0.294-1.096l-3.727-2.152
				c0.333-0.951,0.596-1.934,0.786-2.943h4.306c0.443,0,0.802-0.359,0.802-0.802v-5.995
				C372.538,189.066,372.179,188.707,371.736,188.707z M347.364,209.15c-9.192,0-16.644-7.452-16.644-16.644
				c0-9.192,7.452-16.644,16.644-16.644s16.644,7.452,16.644,16.644C364.007,201.699,356.556,209.15,347.364,209.15z"/>
		</g>
		<g>
			<path style="fill:#FFFFFF;stroke:#263238;stroke-miterlimit:10;" d="M410.738,279.96H283.99c-2.838,0-5.138-2.301-5.138-5.138
				l0,0c0-2.838,2.301-5.138,5.138-5.138h126.749c2.838,0,5.138,2.301,5.138,5.138l0,0
				C415.877,277.66,413.576,279.96,410.738,279.96z"/>
			<path style="fill:#C6FF00;stroke:#263238;stroke-miterlimit:10;" d="M375.34,269.683h-91.35c-2.838,0-5.138,2.3-5.138,5.138
				c0,2.838,2.301,5.138,5.138,5.138h91.35V269.683z"/>
			<g>
				<path style="fill:#FFFFFF;" d="M394.01,265.297c-0.302-0.124-0.547-0.318-0.736-0.584c-0.188-0.266-0.282-0.584-0.282-0.955
					c0-0.39,0.109-0.726,0.328-1.011c0.22-0.284,0.529-0.467,0.93-0.548c-0.4-0.091-0.695-0.263-0.884-0.517
					c-0.188-0.254-0.283-0.56-0.283-0.916c0-0.265,0.053-0.501,0.159-0.71c0.105-0.209,0.25-0.378,0.434-0.507
					c0.183-0.13,0.39-0.227,0.62-0.292c0.23-0.065,0.477-0.098,0.738-0.098c0.359,0,0.684,0.056,0.973,0.168
					c0.289,0.111,0.525,0.291,0.71,0.539c0.184,0.248,0.276,0.548,0.276,0.899c0,0.371-0.098,0.68-0.292,0.925
					c-0.194,0.245-0.483,0.414-0.866,0.508c0.833,0.234,1.249,0.754,1.249,1.559c0,0.371-0.095,0.689-0.285,0.955
					c-0.189,0.266-0.437,0.46-0.74,0.584c-0.303,0.123-0.645,0.185-1.024,0.185C394.652,265.481,394.311,265.42,394.01,265.297z
					 M396.004,264.646c0.255-0.203,0.383-0.495,0.383-0.875c0-0.395-0.128-0.702-0.386-0.921c-0.257-0.219-0.579-0.329-0.968-0.329
					c-0.39,0-0.712,0.11-0.969,0.329c-0.257,0.219-0.386,0.526-0.386,0.921c0,0.38,0.129,0.672,0.388,0.875
					c0.258,0.203,0.58,0.305,0.967,0.305C395.425,264.95,395.748,264.849,396.004,264.646z M395.988,261.58
					c0.233-0.189,0.351-0.46,0.351-0.814c0-0.363-0.126-0.637-0.379-0.821c-0.252-0.184-0.562-0.276-0.927-0.276
					c-0.232,0-0.443,0.036-0.632,0.109c-0.189,0.072-0.347,0.193-0.475,0.363c-0.128,0.17-0.191,0.378-0.191,0.625
					c0,0.353,0.116,0.625,0.349,0.814c0.231,0.189,0.548,0.283,0.949,0.283C395.436,261.863,395.755,261.77,395.988,261.58z"/>
				<path style="fill:#FFFFFF;" d="M399.186,265.31c-0.25-0.114-0.452-0.267-0.605-0.455c-0.154-0.189-0.279-0.422-0.377-0.698
					c-0.097-0.277-0.164-0.563-0.2-0.854c-0.036-0.292-0.054-0.613-0.054-0.965c0-0.368,0.02-0.704,0.059-1.006
					c0.039-0.302,0.107-0.59,0.204-0.866c0.098-0.275,0.225-0.507,0.381-0.694c0.157-0.188,0.358-0.336,0.605-0.446
					c0.247-0.11,0.531-0.165,0.854-0.165c0.325,0,0.611,0.055,0.859,0.165c0.249,0.11,0.45,0.26,0.605,0.448
					c0.155,0.189,0.282,0.421,0.381,0.697c0.099,0.275,0.167,0.564,0.205,0.864c0.037,0.3,0.057,0.635,0.057,1.003
					c0,0.287-0.014,0.555-0.039,0.802c-0.026,0.246-0.069,0.491-0.129,0.735s-0.143,0.46-0.248,0.648
					c-0.106,0.189-0.234,0.357-0.386,0.503c-0.15,0.147-0.337,0.259-0.56,0.338c-0.222,0.078-0.471,0.117-0.746,0.117
					C399.725,265.481,399.436,265.424,399.186,265.31z M400.519,264.828c0.14-0.06,0.256-0.14,0.35-0.237
					c0.094-0.097,0.176-0.218,0.246-0.363c0.069-0.145,0.124-0.29,0.163-0.436c0.039-0.145,0.07-0.309,0.094-0.489
					c0.023-0.182,0.038-0.346,0.046-0.492c0.007-0.146,0.011-0.304,0.011-0.473c0-0.215-0.006-0.412-0.018-0.592
					c-0.012-0.18-0.033-0.376-0.065-0.588c-0.032-0.212-0.08-0.398-0.146-0.56c-0.065-0.161-0.147-0.311-0.244-0.448
					c-0.098-0.138-0.223-0.244-0.377-0.318c-0.153-0.073-0.329-0.11-0.526-0.11c-0.169,0-0.321,0.029-0.457,0.087
					c-0.137,0.058-0.251,0.134-0.344,0.229c-0.094,0.095-0.175,0.212-0.244,0.352c-0.069,0.141-0.124,0.284-0.163,0.431
					c-0.039,0.147-0.071,0.313-0.096,0.497c-0.025,0.185-0.041,0.354-0.048,0.512c-0.008,0.156-0.012,0.326-0.012,0.509
					c0,0.172,0.004,0.33,0.012,0.477c0.007,0.146,0.022,0.31,0.045,0.492c0.023,0.182,0.055,0.346,0.094,0.492
					c0.039,0.147,0.093,0.292,0.161,0.436c0.068,0.143,0.149,0.264,0.244,0.361c0.094,0.097,0.21,0.176,0.346,0.235
					c0.137,0.06,0.29,0.089,0.462,0.089C400.224,264.92,400.379,264.89,400.519,264.828z"/>
				<path style="fill:#FFFFFF;" d="M403.969,262.12c-0.26-0.316-0.39-0.708-0.39-1.175c0-0.465,0.13-0.855,0.39-1.172
					c0.26-0.316,0.61-0.475,1.052-0.475c0.305,0,0.569,0.08,0.795,0.24c0.225,0.159,0.39,0.361,0.494,0.604
					c0.104,0.244,0.156,0.511,0.156,0.802c0,0.464-0.13,0.855-0.392,1.173c-0.261,0.318-0.612,0.477-1.054,0.477
					C404.579,262.595,404.228,262.436,403.969,262.12z M405.438,262.066c0.119-0.071,0.212-0.168,0.278-0.29
					c0.067-0.122,0.116-0.253,0.148-0.392c0.032-0.14,0.048-0.286,0.048-0.439c0-0.151-0.016-0.296-0.048-0.434
					c-0.032-0.138-0.081-0.268-0.148-0.39c-0.066-0.122-0.159-0.219-0.278-0.29c-0.119-0.07-0.258-0.106-0.418-0.106
					c-0.159,0-0.299,0.036-0.418,0.106c-0.119,0.071-0.212,0.168-0.278,0.29c-0.067,0.122-0.116,0.252-0.148,0.39
					c-0.032,0.138-0.048,0.282-0.048,0.434c0,0.153,0.016,0.3,0.048,0.439c0.032,0.139,0.082,0.27,0.15,0.39
					c0.068,0.12,0.162,0.217,0.281,0.289c0.118,0.073,0.257,0.109,0.413,0.109C405.181,262.173,405.319,262.137,405.438,262.066z
					 M404.994,265.634c-0.052-0.043-0.078-0.097-0.078-0.161c0-0.026,0.009-0.057,0.026-0.091l3.461-6.074
					c0.061-0.106,0.141-0.161,0.239-0.161c0.062,0,0.114,0.023,0.159,0.07c0.045,0.046,0.067,0.104,0.067,0.174
					c0,0.047-0.009,0.086-0.026,0.117l-3.479,6.087c-0.037,0.069-0.102,0.104-0.191,0.104
					C405.106,265.699,405.047,265.678,404.994,265.634z M408.031,265.04c-0.26-0.321-0.39-0.712-0.39-1.174
					c0-0.459,0.131-0.847,0.392-1.165c0.262-0.317,0.611-0.477,1.05-0.477c0.305,0,0.568,0.079,0.792,0.237
					c0.224,0.158,0.388,0.359,0.492,0.603c0.104,0.243,0.156,0.511,0.156,0.801c0,0.462-0.13,0.853-0.39,1.174
					c-0.26,0.32-0.61,0.48-1.051,0.48C408.642,265.521,408.291,265.36,408.031,265.04z M409.501,264.985
					c0.119-0.072,0.211-0.17,0.276-0.292c0.066-0.122,0.113-0.252,0.146-0.39c0.032-0.138,0.048-0.283,0.048-0.438
					c0-0.153-0.016-0.3-0.048-0.438c-0.032-0.138-0.08-0.267-0.146-0.388c-0.065-0.12-0.157-0.216-0.276-0.287
					c-0.119-0.071-0.259-0.106-0.418-0.106c-0.16,0-0.3,0.035-0.421,0.106c-0.12,0.071-0.213,0.168-0.278,0.289
					c-0.065,0.122-0.113,0.252-0.144,0.388c-0.03,0.137-0.046,0.282-0.046,0.436c0,0.154,0.017,0.3,0.048,0.438
					c0.032,0.138,0.081,0.268,0.147,0.39c0.064,0.122,0.157,0.22,0.276,0.292c0.119,0.072,0.258,0.108,0.418,0.108
					C409.242,265.094,409.382,265.058,409.501,264.985z"/>
			</g>
			<g>
				<path style="fill:#FFFFFF;" d="M285.836,264.254c-0.164-0.16-0.246-0.371-0.246-0.633v-6.709c0-0.262,0.083-0.473,0.249-0.633
					c0.166-0.16,0.362-0.24,0.589-0.24c0.227,0,0.424,0.08,0.592,0.24c0.168,0.16,0.252,0.371,0.252,0.633v6.709
					c0,0.262-0.084,0.473-0.252,0.633c-0.168,0.16-0.367,0.24-0.598,0.24C286.195,264.494,286,264.414,285.836,264.254z"/>
				<path style="fill:#FFFFFF;" d="M289.299,264.286c-0.137-0.143-0.205-0.341-0.205-0.595v-4.33c0-0.234,0.07-0.416,0.211-0.545
					s0.318-0.193,0.533-0.193c0.211,0,0.385,0.064,0.522,0.191c0.137,0.127,0.205,0.306,0.205,0.536v0.205
					c0.172-0.332,0.423-0.584,0.753-0.756c0.33-0.172,0.724-0.258,1.181-0.258c0.281,0,0.546,0.046,0.794,0.138
					c0.248,0.092,0.47,0.227,0.665,0.404c0.195,0.178,0.35,0.413,0.463,0.706c0.113,0.293,0.17,0.627,0.17,1.002v2.9
					c0,0.254-0.07,0.452-0.211,0.595c-0.141,0.143-0.32,0.214-0.539,0.214c-0.207,0-0.379-0.071-0.516-0.214
					c-0.137-0.143-0.205-0.341-0.205-0.595v-2.906c0-0.402-0.104-0.71-0.313-0.923c-0.209-0.213-0.476-0.319-0.8-0.319
					c-0.391,0-0.729,0.154-1.014,0.463c-0.285,0.309-0.428,0.711-0.428,1.207v2.479c0,0.254-0.069,0.452-0.208,0.595
					c-0.139,0.143-0.316,0.214-0.53,0.214C289.611,264.5,289.436,264.429,289.299,264.286z"/>
				<path style="fill:#FFFFFF;" d="M295.891,263.516c0-0.129,0.044-0.242,0.132-0.34c0.088-0.098,0.2-0.147,0.337-0.147
					c0.098,0,0.199,0.029,0.305,0.088c0.172,0.098,0.31,0.172,0.413,0.223c0.104,0.051,0.271,0.108,0.501,0.173
					c0.23,0.064,0.461,0.097,0.691,0.097c0.227,0,0.429-0.022,0.607-0.067c0.178-0.045,0.33-0.127,0.457-0.246
					c0.127-0.119,0.19-0.272,0.19-0.46c0-0.332-0.271-0.564-0.814-0.697l-0.914-0.234c-0.277-0.074-0.502-0.141-0.674-0.199
					s-0.346-0.134-0.522-0.226c-0.176-0.092-0.31-0.193-0.404-0.305c-0.094-0.111-0.17-0.25-0.228-0.416
					c-0.059-0.166-0.088-0.36-0.088-0.583c0-0.535,0.215-0.946,0.645-1.233c0.43-0.287,0.994-0.431,1.693-0.431
					c0.676,0,1.316,0.147,1.922,0.44c0.211,0.102,0.316,0.258,0.316,0.469c0,0.125-0.04,0.232-0.12,0.319
					c-0.08,0.088-0.187,0.132-0.319,0.132c-0.066,0-0.143-0.016-0.229-0.047c-0.004,0-0.047-0.016-0.129-0.047
					c-0.082-0.031-0.14-0.052-0.173-0.062c-0.033-0.01-0.095-0.029-0.185-0.059c-0.09-0.029-0.167-0.051-0.231-0.064
					c-0.064-0.014-0.142-0.029-0.231-0.047s-0.179-0.03-0.267-0.038c-0.088-0.008-0.177-0.012-0.267-0.012
					c-0.301,0-0.557,0.05-0.768,0.149c-0.211,0.1-0.316,0.253-0.316,0.46c0,0.184,0.058,0.319,0.173,0.407
					c0.115,0.088,0.335,0.169,0.659,0.243l0.902,0.229c0.629,0.156,1.089,0.369,1.38,0.639c0.291,0.27,0.436,0.643,0.436,1.119
					c0,0.598-0.22,1.055-0.659,1.371c-0.439,0.316-1.011,0.475-1.714,0.475c-0.91,0-1.676-0.227-2.297-0.68
					C295.961,263.807,295.891,263.676,295.891,263.516z"/>
				<path style="fill:#FFFFFF;" d="M302.854,264.064c-0.299-0.322-0.448-0.786-0.448-1.392v-3.029h-0.568
					c-0.168,0-0.298-0.046-0.39-0.138c-0.092-0.092-0.138-0.214-0.138-0.366c0-0.145,0.043-0.261,0.129-0.349
					c0.086-0.088,0.213-0.132,0.381-0.132h0.615l0.176-1.453c0.023-0.211,0.097-0.384,0.22-0.519
					c0.123-0.135,0.292-0.202,0.507-0.202c0.172,0,0.306,0.057,0.401,0.17s0.143,0.283,0.143,0.51v1.494h0.943
					c0.164,0,0.289,0.046,0.375,0.138c0.086,0.092,0.129,0.214,0.129,0.366c0,0.148-0.043,0.266-0.129,0.352
					c-0.086,0.086-0.213,0.129-0.381,0.129h-0.938v2.666c0,0.375,0.047,0.654,0.141,0.838c0.094,0.184,0.26,0.275,0.498,0.275h0.064
					l0.416-0.023h0.041c0.16,0,0.287,0.055,0.381,0.164c0.094,0.109,0.141,0.238,0.141,0.387c0,0.094-0.016,0.176-0.047,0.246
					c-0.031,0.07-0.081,0.127-0.149,0.17c-0.068,0.043-0.138,0.078-0.208,0.105c-0.07,0.027-0.165,0.046-0.284,0.056
					c-0.119,0.01-0.222,0.017-0.308,0.021c-0.086,0.004-0.199,0.006-0.34,0.006H304.1
					C303.568,264.549,303.153,264.386,302.854,264.064z"/>
				<path style="fill:#FFFFFF;" d="M306.769,264.122c-0.381-0.295-0.571-0.706-0.571-1.233c0-0.234,0.024-0.44,0.073-0.618
					c0.049-0.178,0.117-0.331,0.205-0.46c0.088-0.129,0.212-0.238,0.372-0.328c0.16-0.09,0.33-0.163,0.51-0.22
					s0.407-0.101,0.683-0.132c0.275-0.031,0.554-0.052,0.835-0.062c0.281-0.01,0.621-0.015,1.02-0.015v-0.451
					c0-0.367-0.087-0.636-0.261-0.806c-0.174-0.17-0.433-0.255-0.776-0.255c-0.074,0-0.149,0.003-0.226,0.009
					c-0.076,0.006-0.153,0.016-0.231,0.029c-0.078,0.014-0.146,0.025-0.205,0.035c-0.059,0.01-0.129,0.026-0.211,0.05
					c-0.082,0.024-0.145,0.041-0.188,0.053c-0.043,0.012-0.105,0.032-0.188,0.061c-0.082,0.029-0.135,0.048-0.158,0.056
					c-0.023,0.008-0.076,0.028-0.158,0.062c-0.082,0.033-0.125,0.05-0.129,0.05c-0.043,0.02-0.098,0.029-0.164,0.029
					c-0.137,0-0.253-0.058-0.349-0.173s-0.144-0.245-0.144-0.39c0-0.191,0.086-0.328,0.258-0.41
					c0.648-0.305,1.369-0.457,2.162-0.457c0.359,0,0.682,0.041,0.967,0.123c0.285,0.082,0.537,0.209,0.756,0.381
					c0.219,0.172,0.388,0.404,0.507,0.697c0.119,0.293,0.179,0.639,0.179,1.037v2.977c0,0.234-0.068,0.416-0.205,0.545
					c-0.137,0.129-0.301,0.193-0.492,0.193c-0.191,0-0.357-0.065-0.495-0.193c-0.139-0.129-0.208-0.311-0.208-0.545v-0.193
					c-0.125,0.297-0.327,0.538-0.606,0.724c-0.279,0.186-0.646,0.278-1.099,0.278C307.637,264.566,307.149,264.417,306.769,264.122z
					 M309.438,263.182c0.301-0.309,0.451-0.699,0.451-1.172v-0.17c-0.391,0-0.7,0.006-0.929,0.018
					c-0.228,0.012-0.445,0.034-0.65,0.067c-0.205,0.033-0.357,0.086-0.454,0.158c-0.098,0.072-0.174,0.166-0.228,0.281
					c-0.055,0.115-0.082,0.263-0.082,0.442c0,0.273,0.079,0.481,0.237,0.624c0.158,0.143,0.368,0.214,0.63,0.214
					C308.795,263.645,309.137,263.49,309.438,263.182z"/>
				<path style="fill:#FFFFFF;" d="M313.114,264.286c-0.135-0.143-0.202-0.345-0.202-0.606v-6.803c0-0.258,0.068-0.459,0.205-0.604
					c0.137-0.145,0.313-0.217,0.527-0.217c0.215,0,0.393,0.072,0.533,0.217c0.141,0.145,0.211,0.346,0.211,0.604v6.803
					c0,0.258-0.071,0.459-0.214,0.604c-0.143,0.145-0.323,0.217-0.542,0.217C313.422,264.5,313.249,264.429,313.114,264.286z"/>
				<path style="fill:#FFFFFF;" d="M316.185,264.286c-0.135-0.143-0.202-0.345-0.202-0.606v-6.803c0-0.258,0.068-0.459,0.205-0.604
					c0.137-0.145,0.313-0.217,0.527-0.217c0.215,0,0.393,0.072,0.533,0.217c0.141,0.145,0.211,0.346,0.211,0.604v6.803
					c0,0.258-0.071,0.459-0.214,0.604s-0.323,0.217-0.542,0.217C316.492,264.5,316.319,264.429,316.185,264.286z"/>
				<path style="fill:#FFFFFF;" d="M319.167,257.226c-0.158-0.15-0.237-0.347-0.237-0.589c0-0.242,0.079-0.438,0.237-0.586
					c0.158-0.149,0.366-0.223,0.624-0.223c0.254,0,0.459,0.074,0.615,0.223c0.156,0.148,0.234,0.344,0.234,0.586
					c0,0.242-0.079,0.439-0.237,0.589c-0.158,0.15-0.364,0.226-0.618,0.226S319.325,257.376,319.167,257.226z M319.258,264.286
					c-0.137-0.143-0.205-0.345-0.205-0.606v-4.23c0-0.262,0.068-0.465,0.205-0.609c0.137-0.145,0.313-0.217,0.527-0.217
					c0.215,0,0.392,0.072,0.53,0.217c0.139,0.145,0.208,0.348,0.208,0.609v4.23c0,0.258-0.069,0.459-0.208,0.604
					c-0.139,0.145-0.315,0.217-0.53,0.217C319.57,264.5,319.395,264.429,319.258,264.286z"/>
				<path style="fill:#FFFFFF;" d="M322.217,264.286c-0.137-0.143-0.205-0.341-0.205-0.595v-4.33c0-0.234,0.07-0.416,0.211-0.545
					c0.141-0.129,0.318-0.193,0.533-0.193c0.211,0,0.385,0.064,0.521,0.191c0.137,0.127,0.205,0.306,0.205,0.536v0.205
					c0.172-0.332,0.423-0.584,0.753-0.756c0.33-0.172,0.724-0.258,1.181-0.258c0.281,0,0.546,0.046,0.794,0.138
					c0.248,0.092,0.47,0.227,0.665,0.404c0.195,0.178,0.35,0.413,0.463,0.706c0.113,0.293,0.17,0.627,0.17,1.002v2.9
					c0,0.254-0.07,0.452-0.211,0.595c-0.141,0.143-0.32,0.214-0.539,0.214c-0.207,0-0.379-0.071-0.516-0.214
					c-0.137-0.143-0.205-0.341-0.205-0.595v-2.906c0-0.402-0.104-0.71-0.313-0.923c-0.209-0.213-0.476-0.319-0.8-0.319
					c-0.391,0-0.729,0.154-1.014,0.463c-0.285,0.309-0.428,0.711-0.428,1.207v2.479c0,0.254-0.069,0.452-0.208,0.595
					c-0.139,0.143-0.315,0.214-0.53,0.214C322.529,264.5,322.353,264.429,322.217,264.286z"/>
				<path style="fill:#FFFFFF;" d="M333.227,263.563c-0.332,0.629-0.914,0.943-1.746,0.943c-0.844,0-1.52-0.261-2.027-0.782
					c-0.508-0.522-0.762-1.229-0.762-2.124c0-0.902,0.247-1.636,0.741-2.2c0.494-0.564,1.165-0.847,2.013-0.847
					c0.473,0,0.844,0.082,1.113,0.246c0.27,0.164,0.502,0.402,0.697,0.715v-0.27c0.02-0.199,0.093-0.353,0.22-0.46
					c0.127-0.107,0.28-0.161,0.46-0.161c0.203,0,0.37,0.072,0.501,0.217c0.131,0.145,0.196,0.346,0.196,0.604v4.805
					c0,0.926-0.268,1.631-0.806,2.115c-0.537,0.484-1.267,0.727-2.188,0.727c-0.418,0-0.817-0.044-1.198-0.132
					c-0.381-0.088-0.677-0.196-0.888-0.325c-0.18-0.109-0.27-0.258-0.27-0.445c0-0.133,0.045-0.25,0.135-0.352
					c0.09-0.102,0.203-0.152,0.34-0.152c0.063,0,0.125,0.012,0.188,0.035c0.035,0.012,0.141,0.048,0.316,0.108
					c0.176,0.061,0.305,0.103,0.387,0.126c0.082,0.023,0.204,0.049,0.366,0.076c0.162,0.027,0.321,0.041,0.478,0.041
					c0.547,0,0.973-0.136,1.277-0.407c0.305-0.271,0.457-0.685,0.457-1.239V263.563z M332.822,263.044
					c0.27-0.314,0.404-0.806,0.404-1.474c0-1.355-0.496-2.033-1.488-2.033c-0.219,0-0.416,0.036-0.592,0.108
					c-0.176,0.072-0.322,0.17-0.439,0.293c-0.117,0.123-0.215,0.271-0.293,0.445c-0.078,0.174-0.135,0.357-0.17,0.551
					c-0.035,0.193-0.053,0.401-0.053,0.624c0,0.645,0.147,1.132,0.442,1.462c0.295,0.33,0.665,0.499,1.11,0.507
					C332.193,263.52,332.553,263.358,332.822,263.044z"/>
				<path style="fill:#FFFFFF;" d="M336.59,264.283c-0.16-0.16-0.24-0.355-0.24-0.586c0-0.223,0.079-0.415,0.237-0.577
					c0.158-0.162,0.36-0.243,0.607-0.243c0.234,0,0.434,0.078,0.598,0.234c0.164,0.156,0.246,0.352,0.246,0.586
					c0,0.227-0.08,0.421-0.24,0.583c-0.16,0.162-0.361,0.243-0.604,0.243S336.75,264.443,336.59,264.283z"/>
				<path style="fill:#FFFFFF;" d="M340.24,264.283c-0.16-0.16-0.24-0.355-0.24-0.586c0-0.223,0.079-0.415,0.237-0.577
					c0.158-0.162,0.36-0.243,0.606-0.243c0.234,0,0.434,0.078,0.598,0.234c0.164,0.156,0.246,0.352,0.246,0.586
					c0,0.227-0.08,0.421-0.24,0.583c-0.16,0.162-0.361,0.243-0.604,0.243C340.602,264.523,340.4,264.443,340.24,264.283z"/>
				<path style="fill:#FFFFFF;" d="M343.891,264.283c-0.16-0.16-0.24-0.355-0.24-0.586c0-0.223,0.079-0.415,0.237-0.577
					c0.158-0.162,0.36-0.243,0.606-0.243c0.234,0,0.434,0.078,0.598,0.234c0.164,0.156,0.246,0.352,0.246,0.586
					c0,0.227-0.08,0.421-0.24,0.583c-0.16,0.162-0.361,0.243-0.604,0.243C344.252,264.523,344.051,264.443,343.891,264.283z"/>
			</g>
		</g>
	</g>
</g>
</svg>
